<svg width="176" height="59" viewBox="0 0 176 59" fill="none" xmlns="http://www.w3.org/2000/svg">
<path d="M17.136 0.288001V2.952H10.296V25.38H7.01999V2.952H0.14399V0.288001H17.136Z" fill="white"/>
<path d="M34.3805 25.38L28.4046 15.12H24.4446V25.38H21.1686V0.288001H29.2686C31.1646 0.288001 32.7605 0.612001 34.0565 1.26C35.3765 1.908 36.3606 2.784 37.0086 3.888C37.6566 4.992 37.9806 6.252 37.9806 7.668C37.9806 9.396 37.4766 10.92 36.4686 12.24C35.4846 13.56 33.9966 14.436 32.0046 14.868L38.3046 25.38H34.3805ZM24.4446 12.492H29.2686C31.0446 12.492 32.3765 12.06 33.2645 11.196C34.1525 10.308 34.5965 9.132 34.5965 7.668C34.5965 6.18 34.1525 5.028 33.2645 4.212C32.4006 3.396 31.0686 2.988 29.2686 2.988H24.4446V12.492Z" fill="white"/>
<path d="M46.3469 0.288001V25.38H43.0709V0.288001H46.3469Z" fill="white"/>
<path d="M55.2063 22.716H63.9903V25.38H51.9303V0.288001H55.2063V22.716Z" fill="white"/>
<path d="M86.8013 0.288001V25.38H83.5253V14.004H70.7453V25.38H67.4693V0.288001H70.7453V11.304H83.5253V0.288001H86.8013Z" fill="white"/>
<path d="M107.227 19.8H96.2831L94.2671 25.38H90.8111L99.8831 0.432001H103.663L112.699 25.38H109.243L107.227 19.8ZM106.291 17.136L101.755 4.464L97.2191 17.136H106.291Z" fill="white"/>
<path d="M134.063 0.288001C136.799 0.288001 139.163 0.804 141.155 1.836C143.171 2.844 144.707 4.296 145.763 6.192C146.843 8.088 147.383 10.32 147.383 12.888C147.383 15.456 146.843 17.688 145.763 19.584C144.707 21.456 143.171 22.896 141.155 23.904C139.163 24.888 136.799 25.38 134.063 25.38H126.251V0.288001H134.063ZM134.063 22.68C137.303 22.68 139.775 21.828 141.479 20.124C143.183 18.396 144.035 15.984 144.035 12.888C144.035 9.768 143.171 7.332 141.443 5.58C139.739 3.828 137.279 2.952 134.063 2.952H129.527V22.68H134.063Z" fill="white"/>
<path d="M163.08 25.632C160.752 25.632 158.628 25.092 156.708 24.012C154.788 22.908 153.264 21.384 152.136 19.44C151.032 17.472 150.48 15.264 150.48 12.816C150.48 10.368 151.032 8.172 152.136 6.228C153.264 4.26 154.788 2.736 156.708 1.656C158.628 0.552 160.752 0 163.08 0C165.432 0 167.568 0.552 169.488 1.656C171.408 2.736 172.92 4.248 174.024 6.192C175.128 8.136 175.68 10.344 175.68 12.816C175.68 15.288 175.128 17.496 174.024 19.44C172.92 21.384 171.408 22.908 169.488 24.012C167.568 25.092 165.432 25.632 163.08 25.632ZM163.08 22.788C164.832 22.788 166.404 22.38 167.796 21.564C169.212 20.748 170.316 19.584 171.108 18.072C171.924 16.56 172.332 14.808 172.332 12.816C172.332 10.8 171.924 9.048 171.108 7.56C170.316 6.048 169.224 4.884 167.832 4.068C166.44 3.252 164.856 2.844 163.08 2.844C161.304 2.844 159.72 3.252 158.328 4.068C156.936 4.884 155.832 6.048 155.016 7.56C154.224 9.048 153.828 10.8 153.828 12.816C153.828 14.808 154.224 16.56 155.016 18.072C155.832 19.584 156.936 20.748 158.328 21.564C159.744 22.38 161.328 22.788 163.08 22.788Z" fill="white"/>
<path d="M0 45.036C0 42.516 0.504 40.272 1.512 38.304C2.544 36.336 4.008 34.812 5.904 33.732C7.8 32.628 10.032 32.076 12.6 32.076C14.808 32.076 16.776 32.496 18.504 33.336C20.256 34.152 21.672 35.316 22.752 36.828C23.856 38.34 24.588 40.104 24.948 42.12H16.524C16.14 41.28 15.588 40.632 14.868 40.176C14.172 39.696 13.368 39.456 12.456 39.456C11.112 39.456 10.044 39.96 9.252 40.968C8.484 41.976 8.1 43.332 8.1 45.036C8.1 46.74 8.484 48.096 9.252 49.104C10.044 50.112 11.112 50.616 12.456 50.616C13.368 50.616 14.172 50.388 14.868 49.932C15.588 49.452 16.14 48.792 16.524 47.952H24.948C24.588 49.968 23.856 51.732 22.752 53.244C21.672 54.756 20.256 55.932 18.504 56.772C16.776 57.588 14.808 57.996 12.6 57.996C10.032 57.996 7.8 57.456 5.904 56.376C4.008 55.272 2.544 53.736 1.512 51.768C0.504 49.8 0 47.556 0 45.036Z" fill="white"/>
<path d="M40.896 52.92H32.4L31.14 56.772H22.752L32.076 31.284H41.292L50.58 56.772H42.156L40.896 52.92ZM38.952 46.908L36.648 39.816L34.344 46.908H38.952Z" fill="white"/>
<path d="M59.8092 50.328H67.5132V56.376H51.8172V30.888H59.8092V50.328Z" fill="white"/>
<path d="M81.1991 57.456C78.7991 57.456 76.5911 56.892 74.5751 55.764C72.5831 54.636 70.9991 53.076 69.8231 51.084C68.6471 49.092 68.0591 46.848 68.0591 44.352C68.0591 41.856 68.6471 39.612 69.8231 37.62C70.9991 35.628 72.5831 34.08 74.5751 32.976C76.5911 31.848 78.7991 31.284 81.1991 31.284C83.5991 31.284 85.7951 31.848 87.7871 32.976C89.7791 34.08 91.3511 35.628 92.5031 37.62C93.6791 39.612 94.2671 41.856 94.2671 44.352C94.2671 46.848 93.6791 49.092 92.5031 51.084C91.3511 53.076 89.7671 54.636 87.7511 55.764C85.7591 56.892 83.5751 57.456 81.1991 57.456ZM81.1991 50.004C82.7831 50.004 84.0071 49.5 84.8711 48.492C85.7351 47.46 86.1671 46.08 86.1671 44.352C86.1671 42.6 85.7351 41.22 84.8711 40.212C84.0071 39.18 82.7831 38.664 81.1991 38.664C79.5911 38.664 78.3551 39.18 77.4911 40.212C76.6271 41.22 76.1951 42.6 76.1951 44.352C76.1951 46.08 76.6271 47.46 77.4911 48.492C78.3551 49.5 79.5911 50.004 81.1991 50.004Z" fill="white"/>
<path d="M102.349 30.888V45.252C102.349 46.428 102.601 47.364 103.105 48.06C103.633 48.732 104.473 49.068 105.625 49.068C106.777 49.068 107.629 48.732 108.181 48.06C108.733 47.364 109.009 46.428 109.009 45.252V30.888L116.965 32.004V45.252C116.965 47.676 116.461 49.752 115.453 51.48C114.445 53.184 113.065 54.468 111.313 55.332C109.561 56.196 107.605 56.628 105.445 56.628C103.285 56.628 101.365 56.196 99.6851 55.332C98.0291 54.468 96.7331 53.184 95.7971 51.48C94.8611 49.776 94.3931 47.7 94.3931 45.252V30.888H102.349Z" fill="white"/>
<path d="M135.271 57.492L130.483 48.348H130.447V57.492H122.455L116.965 32.004H134.335C136.399 32.004 138.163 32.376 139.627 33.12C141.091 33.84 142.183 34.836 142.903 36.108C143.647 37.356 144.019 38.772 144.019 40.356C144.019 42.06 143.539 43.572 142.579 44.892C141.643 46.212 140.287 47.16 138.511 47.736L144.055 57.492H135.271ZM130.447 43.02L133.615 38.7C134.383 38.7 130.063 43.356 130.447 43.02C130.831 42.66 134.335 43.764 134.335 43.02C134.335 42.348 134.743 44.736 134.335 44.352C136.028 48.096 122 46 133.615 38.7L120 35L130.447 43.02Z" fill="white"/>
<path d="M157.159 58.248C154.759 58.248 152.551 57.684 150.535 56.556C148.543 55.428 146.959 53.868 145.783 51.876C144.607 49.884 144.019 47.64 144.019 45.144C144.019 42.648 144.607 40.404 145.783 38.412C146.959 36.42 148.543 34.872 150.535 33.768C152.551 32.64 154.759 32.076 157.159 32.076C159.559 32.076 161.755 32.64 163.747 33.768C165.739 34.872 167.311 36.42 168.463 38.412C169.639 40.404 170.227 42.648 170.227 45.144C170.227 47.64 169.639 49.884 168.463 51.876C167.311 53.868 165.727 55.428 163.711 56.556C161.719 57.684 159.535 58.248 157.159 58.248ZM157.159 50.796C158.743 50.796 159.967 50.292 160.831 49.284C161.695 48.252 162.127 46.872 162.127 45.144C162.127 43.392 161.695 42.012 160.831 41.004C159.967 39.972 158.743 39.456 157.159 39.456C155.551 39.456 154.315 39.972 153.451 41.004C152.587 42.012 152.155 43.392 152.155 45.144C152.155 46.872 152.587 48.252 153.451 49.284C154.315 50.292 155.551 50.796 157.159 50.796Z" fill="white"/>
</svg>
